<svg width="2490" height="368" fill="none" xmlns="http://www.w3.org/2000/svg"><path d="M148.525 147.266h-24.696c-10.477 0-18.029-2.654-22.655-7.96-4.627-5.443-6.94-12.587-6.94-21.431 0-19.594 14.628-29.39 43.882-29.39 27.486 0 48.168 4.081 62.047 12.245l-11.838 8.981c-9.525-4.354-26.261-6.531-50.209-6.531-11.702 0-19.594 1.292-23.676 3.878-3.946 2.585-5.919 6.191-5.919 10.817s1.089 8.232 3.266 10.817c2.177 2.586 6.191 3.878 12.042 3.878h25.309c18.369 0 34.901 3.13 49.596 9.389 14.832 6.259 27.01 14.831 36.535 25.717 9.524 10.749 16.804 23.199 21.838 37.35 5.035 14.015 7.552 29.051 7.552 45.107 0 13.062-1.837 25.444-5.511 37.146-3.673 11.702-9.252 22.451-16.736 32.248-7.348 9.797-16.26 18.301-26.737 25.513-10.341 7.076-22.724 12.586-37.147 16.532-14.287 4.082-29.799 6.123-46.535 6.123-26.261 0-50.89-4.014-73.885-12.042C35.25 347.761 16.2 336.672.96 322.385l11.838-8.777c13.879 12.519 31.227 22.247 52.046 29.187C85.798 349.598 108.18 353 131.993 353c18.641 0 35.446-2.653 50.413-7.96 15.104-5.443 27.486-12.858 37.147-22.247 9.797-9.389 17.28-20.274 22.451-32.656 5.307-12.382 7.96-25.717 7.96-40.004 0-18.914-3.81-35.99-11.43-51.23-7.62-15.375-19.253-27.826-34.901-37.35-15.512-9.525-33.881-14.287-55.108-14.287zm-24.696 14.695h23.268c27.621 0 49.188 8.436 64.7 25.309 15.648 16.872 23.472 37.826 23.472 62.863 0 25.444-9.049 46.535-27.146 63.271-18.097 16.601-43.474 24.901-76.13 24.901-21.771 0-42.113-2.994-61.026-8.981-18.914-5.987-34.63-14.423-47.148-25.308l11.43-9.185c11.158 9.117 25.172 16.192 42.045 21.227 17.008 5.034 35.241 7.551 54.699 7.551 28.71 0 50.617-6.871 65.721-20.614 15.239-13.743 22.859-31.363 22.859-52.862 0-21.227-6.395-38.779-19.185-52.658-12.655-13.879-30.82-20.819-54.495-20.819h-23.064c-19.866 0-34.765-5.442-44.698-16.328-9.933-10.885-14.9-25.036-14.9-42.453s6.124-31.568 18.37-42.453c12.382-10.885 30.887-16.328 55.515-16.328 17.281 0 33.337 2.04 48.168 6.123 14.832 3.946 27.078 9.66 36.738 17.144l-11.633 8.98C194.38 79.64 169.956 73.79 138.116 73.79c-20.546 0-35.581 4.082-45.106 12.246-9.389 8.028-14.083 18.641-14.083 31.84 0 13.335 3.47 24.016 10.409 32.044 7.076 8.028 18.573 12.042 34.493 12.042zm0 29.391h22.451c19.866 0 34.766 5.51 44.699 16.532 9.932 11.021 14.899 25.104 14.899 42.249 0 17.416-6.191 31.568-18.573 42.453-12.246 10.885-30.684 16.328-55.312 16.328-17.28 0-33.404-1.973-48.372-5.919-14.831-4.082-27.077-9.865-36.738-17.349l11.634-8.98c17.008 11.702 41.5 17.553 73.476 17.553 20.546 0 35.514-4.014 44.903-12.042 9.524-8.164 14.287-18.846 14.287-32.044 0-13.199-3.538-23.812-10.614-31.84-7.075-8.164-18.573-12.246-34.493-12.246h-22.247c-27.894 0-49.733-8.3-65.516-24.901C42.665 164.41 34.84 143.32 34.84 117.875s9.048-46.467 27.145-63.067c18.097-16.737 43.474-25.105 76.13-25.105 21.771 0 42.045 2.994 60.822 8.98 18.914 5.988 34.63 14.424 47.148 25.31l-11.43 9.184c-11.157-9.117-25.172-16.192-42.045-21.227-16.872-5.034-35.037-7.552-54.495-7.552-28.71 0-50.685 6.872-65.925 20.615-15.103 13.742-22.655 31.363-22.655 52.862 0 21.363 6.395 38.983 19.186 52.862 12.79 13.743 31.16 20.615 55.107 20.615zm0 29.39h22.451c10.477 0 18.029 2.722 22.656 8.164 4.626 5.443 6.939 12.518 6.939 21.227 0 19.594-14.627 29.39-43.882 29.39-27.622 0-48.372-4.082-62.25-12.246l11.837-8.98c9.525 4.354 26.329 6.531 50.413 6.531 11.702 0 19.526-1.293 23.472-3.878 4.082-2.585 6.123-6.191 6.123-10.817 0-4.49-1.157-8.028-3.47-10.613-2.177-2.722-6.259-4.082-12.246-4.082h-22.043c-18.777 0-35.786-3.062-51.025-9.185-15.104-6.123-27.554-14.559-37.35-25.309-9.662-10.749-17.077-23.199-22.248-37.35-5.17-14.151-7.756-29.391-7.756-45.719 0-13.063 1.837-25.445 5.51-37.147 3.675-11.701 9.185-22.45 16.533-32.247 7.484-9.797 16.396-18.234 26.738-25.31 10.477-7.21 22.859-12.79 37.146-16.735C105.8 2.354 121.38.313 138.116.313c26.261 0 50.822 4.014 73.681 12.041 22.859 7.892 41.909 18.982 57.148 33.269l-11.838 8.776c-13.878-12.518-31.227-22.179-52.045-28.982-20.819-6.94-43.134-10.41-66.946-10.41-18.641 0-35.513 2.722-50.617 8.165-14.967 5.306-27.35 12.654-37.146 22.043C40.691 54.603 33.207 65.489 27.9 77.87c-5.17 12.382-7.756 25.717-7.756 40.004 0 19.186 3.878 36.466 11.634 51.842 7.756 15.375 19.594 27.758 35.514 37.146 15.92 9.253 34.765 13.879 56.536 13.879zM290.784 29.703V15.008h220.43v14.695h-220.43zm0 29.39V44.399h220.43v14.696h-220.43zm0 29.391V73.79h220.43v14.695h-58.781V353h-14.696V88.484h-14.695V353h-14.695V88.484h-14.696V353h-14.695V88.484h-14.695V353h-14.696V88.484h-58.781zM690.619 253.807l5.919-14.696h50.209l5.919 14.696h-62.047zm-11.43 29.39l5.715-14.695h73.273l6.327 14.695h-85.315zm-11.429 29.391l5.715-14.695h96.336l6.123 14.695H667.76zM548.36 353h-15.92L666.127 15.008h15.92L815.529 353h-15.716L674.087 34.806 548.36 353zM675.924 69.707l8.368 18.777L579.792 353h-15.716L675.924 69.707zm16.328 38.779l7.756 20.206L611.632 353h-15.92l96.54-244.514zm15.512 40.412l7.756 20.615L643.063 353h-15.715l80.416-204.102zM910.437 353h-15.92L761.034 15.008h15.716L910.437 353zM745.114 15.008L878.801 353h-15.716L729.398 15.008h15.716zm-31.635 0L847.165 353h-15.92L697.763 15.008h15.716zM1169.65 130.529l-12.05 7.96c-7.34-10.885-16.94-19.457-28.77-25.717-11.71-6.395-24.43-9.592-38.17-9.592-22.32 0-41.37 7.892-57.15 23.675-15.78 15.784-23.68 34.834-23.68 57.149 0 22.315 7.9 41.364 23.68 57.148 15.78 15.784 34.83 23.676 57.15 23.676 13.74 0 26.46-3.197 38.17-9.593 11.83-6.395 21.43-15.035 28.77-25.921l11.84 8.573c-8.71 12.79-20 22.927-33.88 30.411-13.88 7.484-28.85 11.225-44.9 11.225-12.93 0-25.31-2.517-37.15-7.551-11.7-5.035-21.84-11.838-30.41-20.41-8.57-8.573-15.38-18.71-20.41-30.412-5.034-11.838-7.551-24.22-7.551-37.146 0-12.927 2.517-25.241 7.551-36.942 5.03-11.838 11.84-22.043 20.41-30.616 8.57-8.572 18.71-15.375 30.41-20.41 11.84-5.034 24.22-7.552 37.15-7.552 16.19 0 31.23 3.81 45.1 11.43 13.88 7.484 25.18 17.689 33.89 30.615zm24.28-16.736l-12.24 7.96c-10.07-14.695-23.13-26.33-39.19-34.901-15.92-8.709-33.2-13.063-51.84-13.063-20 0-38.44 4.966-55.31 14.9-16.88 9.796-30.28 23.131-40.211 40.003-9.797 16.873-14.696 35.31-14.696 55.312 0 20.002 4.899 38.439 14.696 55.311 9.931 16.873 23.331 30.275 40.211 40.208 16.87 9.797 35.31 14.696 55.31 14.696 18.64 0 35.99-4.354 52.04-13.063 16.06-8.708 29.12-20.478 39.19-35.309l12.04 8.368c-11.43 16.872-26.26 30.207-44.49 40.004-18.1 9.797-37.69 14.695-58.78 14.695-22.59 0-43.48-5.579-62.66-16.736-19.19-11.158-34.358-26.329-45.516-45.515-11.157-19.185-16.736-40.072-16.736-62.659 0-22.587 5.579-43.474 16.736-62.659 11.158-19.186 26.326-34.357 45.516-45.515 19.18-11.157 40.07-16.736 62.66-16.736 21.09 0 40.68 4.898 58.78 14.695 18.23 9.797 33.06 23.132 44.49 40.004zm24.5-16.328l-12.25 7.96c-12.79-18.778-29.39-33.609-49.8-44.494-20.28-11.022-42.18-16.533-65.72-16.533-18.92 0-37.01 3.674-54.29 11.022-17.28 7.348-32.18 17.28-44.701 29.799-12.382 12.382-22.247 27.213-29.595 44.494-7.347 17.28-11.021 35.377-11.021 54.291 0 18.913 3.674 37.01 11.021 54.291 7.348 17.281 17.213 32.18 29.595 44.698 12.521 12.382 27.421 22.247 44.701 29.595 17.28 7.348 35.37 11.021 54.29 11.021 23.67 0 45.65-5.51 65.92-16.532 20.28-11.021 36.81-25.921 49.6-44.698l11.84 8.776c-14.15 20.683-32.45 37.079-54.91 49.189-22.31 11.974-46.46 17.961-72.45 17.961-27.9 0-53.68-6.872-77.36-20.615-23.672-13.878-42.449-32.656-56.328-56.332-13.743-23.675-20.615-49.46-20.615-77.354s6.872-53.679 20.615-77.355c13.879-23.675 32.656-42.385 56.328-56.127 23.68-13.88 49.46-20.819 77.36-20.819 26.12 0 50.41 6.123 72.86 18.37 22.45 12.11 40.75 28.574 54.91 49.392zm24.08-16.737l-12.25 7.96c-15.51-22.723-35.58-40.684-60.21-53.882-24.49-13.199-50.95-19.798-79.39-19.798-22.86 0-44.77 4.49-65.72 13.47-20.82 8.845-38.782 20.819-53.885 35.922-15.104 15.104-27.146 33.133-36.126 54.087-8.845 20.819-13.267 42.658-13.267 65.517 0 22.859 4.422 44.766 13.267 65.721 8.98 20.818 21.022 38.779 36.126 53.882 15.103 15.104 33.065 27.146 53.885 36.126 20.95 8.845 42.86 13.267 65.72 13.267 28.44 0 54.97-6.667 79.6-20.002 24.63-13.335 44.7-31.364 60.21-54.087l11.84 8.981c-16.88 24.492-38.65 43.949-65.32 58.373-26.67 14.287-55.44 21.43-86.33 21.43-24.9 0-48.71-4.898-71.44-14.695-22.585-9.661-42.11-22.655-58.574-38.983-16.329-16.465-29.391-35.99-39.188-58.578-9.661-22.723-14.491-46.535-14.491-71.435 0-24.9 4.83-48.644 14.491-71.232 9.797-22.723 22.859-42.249 39.188-58.577 16.464-16.464 35.989-29.526 58.574-39.187C1041.95 5.21 1065.76.313 1090.66.313c31.02 0 59.87 7.211 86.54 21.634 26.67 14.423 48.44 34.017 65.31 58.781zM1373.75 353h-14.7V15.008h14.7V353zm-29.39 0h-14.7V15.008h14.7V353zm-29.39 0h-14.7V15.008h14.7V353zm-29.39 0h-14.7V15.008h14.7V353zm195.52-168.996l86.34-168.996h16.33l-86.34 168.996L1583.77 353h-16.33l-86.34-168.996zm-32.86 0l86.34-168.996h16.33l-86.34 168.996L1550.91 353h-16.33l-86.34-168.996zm-32.86 0l86.34-168.996h16.33l-86.34 168.996L1518.05 353h-16.33l-86.34-168.996zm-33.06 0l86.54-168.996h16.33l-86.54 168.996L1485.19 353h-16.33l-86.54-168.996z" fill="#9200C6"/><path d="M1864.27 229.723l14.7-27.758V353h-14.7V229.723zm29.39-56.332l14.7-27.758V353h-14.7V173.391zm29.39-55.516l14.7-27.962V353h-14.7V117.875zm-98.58 104.908l-8.37-15.307 101.24-192.468h16.53l-109.4 207.775zm-16.94-32.044l-8.57-15.511 84.9-160.22h16.74l-93.07 175.731zm-98.38 12.859l14.7 27.757V353h-14.7V203.598zm-29.39-55.924l14.7 27.758V353h-14.7V147.674zm-29.39-55.924l14.7 27.962V353h-14.7V91.75zm118.79 173.078h-16.53L1635.68 42.97V353h-14.7V15.008h16.53l131.65 249.82zm33.27 0h-16.74l-131.44-249.82h16.74l131.44 249.82zM1952.44 42.97l-116.95 221.858h-16.73l-131.24-249.82h16.53l123.28 234.308L1950.4 15.008h16.74V353h-14.7V42.97zM2094.09 15.008h14.69V353h-14.69V15.008zm-29.39 0h14.69V353h-14.69V15.008zm-29.39 0H2050V353h-14.69V15.008zm-29.39 0h14.69V353h-14.69V15.008zM2250.02 170.329l-8.77 13.879-106.34-169.2h17.35l97.76 155.321zm72.46 110.419l8.57-13.879L2385.34 353h-17.35l-45.51-72.252zm-55.11-137.769l-8.78 13.675-88.98-141.646h17.14l80.62 127.971zm72.46 110.215l8.57-13.879L2420.04 353h-17.35l-62.86-99.806zm-55.11-137.972l-8.57 13.674-71.85-113.888h17.35l63.07 100.214zm72.66 110.215l8.57-13.879L2454.94 353h-17.35l-80.21-127.563zm-55.31-137.769l-8.57 13.879-54.5-86.54h17.35l45.72 72.661zm72.45 110.215l8.58-13.879L2489.64 353h-17.35l-97.77-155.117zm87.56-182.875h17.35L2266.76 353h-17.35l212.67-337.992zm-34.49 0h17.15L2232.06 353h-17.35l212.88-337.992zm-34.9 0h17.35L2197.16 353h-17.35l212.88-337.992zm-34.7 0h17.35L2162.46 353h-17.35l212.88-337.992z" fill="#CA00CE"/></svg>